<?xml version="1.0" encoding="UTF-8"?>
<svg xmlns="http://www.w3.org/2000/svg" xmlns:xlink="http://www.w3.org/1999/xlink" width="20px" height="20px" viewBox="0 0 20 20" version="1.1">
<g id="surface1">
<path style=" stroke:none;fill-rule:nonzero;fill:rgb(11.372549%,60.784314%,94.117647%);fill-opacity:1;" d="M 5 2.5 L 5 1.667969 L 6.667969 1.667969 L 6.667969 2.5 L 11.667969 2.5 L 11.667969 1.667969 L 13.332031 1.667969 L 13.332031 2.5 L 14.582031 2.5 C 15.734375 2.5 16.667969 3.433594 16.667969 4.582031 L 16.667969 6.25 L 15 6.25 L 15 4.582031 C 15 4.351562 14.816406 4.167969 14.582031 4.167969 L 13.332031 4.167969 L 13.332031 5 L 11.667969 5 L 11.667969 4.167969 L 6.667969 4.167969 L 6.667969 5 L 5 5 L 5 4.167969 L 3.75 4.167969 C 3.515625 4.167969 3.332031 4.351562 3.332031 4.582031 L 3.332031 14.582031 C 3.332031 14.8125 3.515625 15 3.75 15 L 6.25 15 L 6.25 16.667969 L 3.75 16.667969 C 2.601562 16.667969 1.667969 15.734375 1.667969 14.582031 L 1.667969 4.582031 C 1.667969 3.433594 2.601562 2.5 3.75 2.5 Z M 12.917969 9.167969 C 10.839844 9.167969 9.167969 10.847656 9.167969 12.917969 C 9.167969 14.988281 10.839844 16.667969 12.917969 16.667969 C 14.992188 16.667969 16.667969 14.988281 16.667969 12.917969 C 16.667969 10.847656 14.992188 9.167969 12.917969 9.167969 Z M 7.5 12.917969 C 7.5 9.925781 9.925781 7.5 12.917969 7.5 C 15.910156 7.5 18.332031 9.925781 18.332031 12.917969 C 18.332031 15.910156 15.910156 18.332031 12.917969 18.332031 C 9.925781 18.332031 7.5 15.910156 7.5 12.917969 Z M 12.082031 10.832031 L 13.75 10.832031 L 13.75 12.570312 L 15.175781 13.996094 L 13.992188 15.171875 L 12.082031 13.261719 Z M 12.082031 10.832031 "/>
</g>
</svg>
