<?xml version="1.0" encoding="UTF-8"?>
<svg xmlns="http://www.w3.org/2000/svg" xmlns:xlink="http://www.w3.org/1999/xlink" width="20px" height="20px" viewBox="0 0 20 20" version="1.1">
<g id="surface1">
<path style=" stroke:none;fill-rule:nonzero;fill:rgb(11.372549%,60.784314%,94.117647%);fill-opacity:1;" d="M 2.5 4.582031 C 2.5 3.433594 3.433594 2.5 4.582031 2.5 L 15.417969 2.5 C 16.566406 2.5 17.5 3.433594 17.5 4.582031 L 17.5 15.417969 C 17.5 16.566406 16.566406 17.5 15.417969 17.5 L 4.582031 17.5 C 3.433594 17.5 2.5 16.566406 2.5 15.417969 Z M 4.582031 4.167969 C 4.351562 4.167969 4.167969 4.351562 4.167969 4.582031 L 4.167969 12.15625 L 6.667969 9.65625 L 9.167969 12.15625 L 13.332031 7.988281 L 15.832031 10.488281 L 15.832031 4.582031 C 15.832031 4.351562 15.648438 4.167969 15.417969 4.167969 Z M 15.832031 12.84375 L 13.332031 10.34375 L 9.167969 14.511719 L 6.667969 12.011719 L 4.167969 14.511719 L 4.167969 15.417969 C 4.167969 15.648438 4.351562 15.832031 4.582031 15.832031 L 15.417969 15.832031 C 15.648438 15.832031 15.832031 15.648438 15.832031 15.417969 Z M 8.125 5.832031 C 7.320312 5.832031 6.667969 6.488281 6.667969 7.292969 C 6.667969 8.097656 7.320312 8.75 8.125 8.75 C 8.929688 8.75 9.582031 8.097656 9.582031 7.292969 C 9.582031 6.488281 8.929688 5.832031 8.125 5.832031 Z M 8.125 5.832031 "/>
</g>
</svg>
