<?xml version="1.0" encoding="UTF-8"?>
<svg xmlns="http://www.w3.org/2000/svg" xmlns:xlink="http://www.w3.org/1999/xlink" width="20px" height="20px" viewBox="0 0 20 20" version="1.1">
<g id="surface1">
<path style=" stroke:none;fill-rule:nonzero;fill:rgb(11.372549%,60.784314%,94.117647%);fill-opacity:1;" d="M 10 5.832031 C 8.390625 5.832031 7.082031 7.140625 7.082031 8.75 C 7.082031 10.359375 8.390625 11.667969 10 11.667969 C 11.609375 11.667969 12.917969 10.359375 12.917969 8.75 C 12.917969 7.140625 11.609375 5.832031 10 5.832031 Z M 10 10 C 9.3125 10 8.75 9.4375 8.75 8.75 C 8.75 8.0625 9.3125 7.5 10 7.5 C 10.6875 7.5 11.25 8.0625 11.25 8.75 C 11.25 9.4375 10.6875 10 10 10 Z M 10 1.667969 C 6.09375 1.667969 2.917969 4.84375 2.917969 8.75 C 2.917969 13.722656 9.265625 18.011719 9.539062 18.191406 L 10 18.5 L 10.460938 18.191406 C 10.734375 18.011719 17.082031 13.722656 17.082031 8.75 C 17.082031 4.84375 13.90625 1.667969 10 1.667969 Z M 10 16.476562 C 8.613281 15.441406 4.582031 12.144531 4.582031 8.75 C 4.582031 5.761719 7.011719 3.332031 10 3.332031 C 12.988281 3.332031 15.417969 5.761719 15.417969 8.75 C 15.417969 12.144531 11.386719 15.441406 10 16.476562 Z M 10 16.476562 "/>
</g>
</svg>
