<?xml version="1.0" encoding="UTF-8"?>
<svg xmlns="http://www.w3.org/2000/svg" xmlns:xlink="http://www.w3.org/1999/xlink" width="20px" height="20px" viewBox="0 0 20 20" version="1.1">
<g id="surface1">
<path style=" stroke:none;fill-rule:nonzero;fill:rgb(11.372549%,60.784314%,94.117647%);fill-opacity:1;" d="M 5 4.167969 C 4.082031 4.167969 3.332031 4.914062 3.332031 5.832031 C 3.332031 6.753906 4.082031 7.5 5 7.5 C 5.917969 7.5 6.667969 6.753906 6.667969 5.832031 C 6.667969 4.914062 5.917969 4.167969 5 4.167969 Z M 1.667969 5.832031 C 1.667969 3.992188 3.160156 2.5 5 2.5 C 6.839844 2.5 8.332031 3.992188 8.332031 5.832031 C 8.332031 7.675781 6.839844 9.167969 5 9.167969 C 3.160156 9.167969 1.667969 7.675781 1.667969 5.832031 Z M 18.332031 6.667969 L 10 6.667969 L 10 5 L 18.332031 5 Z M 5 12.5 C 4.082031 12.5 3.332031 13.246094 3.332031 14.167969 C 3.332031 15.085938 4.082031 15.832031 5 15.832031 C 5.917969 15.832031 6.667969 15.085938 6.667969 14.167969 C 6.667969 13.246094 5.917969 12.5 5 12.5 Z M 1.667969 14.167969 C 1.667969 12.324219 3.160156 10.832031 5 10.832031 C 6.839844 10.832031 8.332031 12.324219 8.332031 14.167969 C 8.332031 16.007812 6.839844 17.5 5 17.5 C 3.160156 17.5 1.667969 16.007812 1.667969 14.167969 Z M 18.332031 15 L 10 15 L 10 13.332031 L 18.332031 13.332031 Z M 5.832031 5.832031 C 5.832031 6.292969 5.457031 6.667969 5 6.667969 C 4.542969 6.667969 4.167969 6.292969 4.167969 5.832031 C 4.167969 5.375 4.542969 5 5 5 C 5.457031 5 5.832031 5.375 5.832031 5.832031 Z M 5.832031 5.832031 "/>
</g>
</svg>
