<?xml version="1.0" encoding="UTF-8"?>
<svg xmlns="http://www.w3.org/2000/svg" xmlns:xlink="http://www.w3.org/1999/xlink" width="20px" height="20px" viewBox="0 0 20 20" version="1.1">
<g id="surface1">
<path style=" stroke:none;fill-rule:nonzero;fill:rgb(11.372549%,60.784314%,94.117647%);fill-opacity:1;" d="M 2.5 4.582031 C 2.5 3.433594 3.433594 2.5 4.582031 2.5 L 15.417969 2.5 C 16.566406 2.5 17.5 3.433594 17.5 4.582031 L 17.5 15.417969 C 17.5 16.566406 16.566406 17.5 15.417969 17.5 L 4.582031 17.5 C 3.433594 17.5 2.5 16.566406 2.5 15.417969 Z M 4.582031 4.167969 C 4.351562 4.167969 4.167969 4.351562 4.167969 4.582031 L 4.167969 15.417969 C 4.167969 15.648438 4.351562 15.832031 4.582031 15.832031 L 15.417969 15.832031 C 15.648438 15.832031 15.832031 15.648438 15.832031 15.417969 L 15.832031 4.582031 C 15.832031 4.351562 15.648438 4.167969 15.417969 4.167969 Z M 15 8.925781 L 15 7.707031 L 11.882812 7.707031 L 11.882812 12.292969 L 13.082031 12.292969 L 13.082031 10.859375 L 14.5 10.859375 L 14.5 9.640625 L 13.082031 9.640625 L 13.082031 8.925781 Z M 9.824219 7.707031 L 11.023438 7.707031 L 11.023438 12.292969 L 9.824219 12.292969 Z M 7.265625 8.855469 C 7.550781 8.855469 7.910156 8.996094 8.117188 9.210938 L 8.976562 8.496094 C 8.550781 7.996094 7.910156 7.707031 7.265625 7.707031 C 5.992188 7.707031 5 8.710938 5 10 C 5 11.289062 5.992188 12.292969 7.265625 12.292969 C 7.976562 12.292969 8.550781 12.003906 8.976562 11.503906 L 8.976562 9.714844 L 6.984375 9.714844 L 6.984375 10.574219 L 7.832031 10.574219 L 7.832031 11.003906 C 7.691406 11.074219 7.484375 11.144531 7.265625 11.144531 C 6.632812 11.144531 6.132812 10.644531 6.132812 10 C 6.132812 9.425781 6.632812 8.855469 7.265625 8.855469 Z M 7.265625 8.855469 "/>
</g>
</svg>
