<svg xmlns:xlink="http://www.w3.org/1999/xlink" xmlns="http://www.w3.org/2000/svg" viewBox="0 0 24 24" aria-hidden="true" class="r-4qtqp9 r-yyyyoo r-dnmrzs r-bnwqim r-1plcrui r-lrvibr r-1nao33i r-1q142lx r-1kihuf0 r-1472mwg r-mbgqwd r-lrsllp" data-testid="icon" width="24"  height="24" ><g fill="#E7E9EA"><path d="M3 4.5C3 3.12 4.12 2 5.5 2h13C19.88 2 21 3.12 21 4.5v15c0 1.38-1.12 2.5-2.5 2.5h-13C4.12 22 3 20.88 3 19.5v-15zM5.5 4c-.28 0-.5.22-.5.5v15c0 .28.22.5.5.5h13c.28 0 .5-.22.5-.5v-15c0-.28-.22-.5-.5-.5h-13zM16 10H8V8h8v2zm-8 2h8v2H8v-2z" fill="#E7E9EA"></path></g></svg>