<svg xmlns:xlink="http://www.w3.org/1999/xlink" xmlns="http://www.w3.org/2000/svg" viewBox="0 0 24 24" aria-hidden="true" class="r-4qtqp9 r-yyyyoo r-dnmrzs r-bnwqim r-1plcrui r-lrvibr r-1nao33i r-1q142lx r-1kihuf0 r-1472mwg r-mbgqwd r-lrsllp" data-testid="icon" width="24"  height="24" ><g fill="#E7E9EA"><path d="M1.996 5.5c0-1.38 1.119-2.5 2.5-2.5h15c1.38 0 2.5 1.12 2.5 2.5v13c0 1.38-1.12 2.5-2.5 2.5h-15c-1.381 0-2.5-1.12-2.5-2.5v-13zm2.5-.5c-.277 0-.5.22-.5.5v13c0 .28.223.5.5.5h15c.276 0 .5-.22.5-.5v-13c0-.28-.224-.5-.5-.5h-15zm8.085 5H8.996V8h7v7h-2v-3.59l-5.293 5.3-1.415-1.42L12.581 10z" fill="#E7E9EA"></path></g></svg>